<mxfile host="app.diagrams.net" modified="2023-09-04T07:01:22.680Z" agent="Mozilla/5.0 (Macintosh; Intel Mac OS X 10_15_7) AppleWebKit/537.36 (KHTML, like Gecko) Chrome/115.0.0.0 Safari/537.36" etag="eDn0RSQEbCt7ELr9V2Fb" version="21.6.8" type="github">
  <diagram id="C5RBs43oDa-KdzZeNtuy" name="Page-1">
    <mxGraphModel dx="1242" dy="790" grid="1" gridSize="10" guides="1" tooltips="1" connect="1" arrows="1" fold="1" page="1" pageScale="1" pageWidth="827" pageHeight="1169" math="0" shadow="0">
      <root>
        <mxCell id="WIyWlLk6GJQsqaUBKTNV-0" />
        <mxCell id="WIyWlLk6GJQsqaUBKTNV-1" parent="WIyWlLk6GJQsqaUBKTNV-0" />
        <mxCell id="FrSUrsEjo2eyq7ZfQmNP-0" value="AnalyticsOption" style="swimlane;fontStyle=1;align=center;verticalAlign=top;childLayout=stackLayout;horizontal=1;startSize=26;horizontalStack=0;resizeParent=1;resizeParentMax=0;resizeLast=0;collapsible=1;marginBottom=0;whiteSpace=wrap;html=1;" vertex="1" parent="WIyWlLk6GJQsqaUBKTNV-1">
          <mxGeometry x="470" y="310" width="230" height="170" as="geometry" />
        </mxCell>
        <mxCell id="FrSUrsEjo2eyq7ZfQmNP-1" value="+ PoolSize: int&lt;br&gt;+ RecordBufferSize: uint64&lt;br&gt;+ FlushInterval: uint64&lt;br&gt;+ StorageExpirationTime time.Duration&lt;br&gt;+ Enable: bool&lt;br&gt;+ EnableDetailedRecording: bool&lt;br&gt;" style="text;strokeColor=none;fillColor=none;align=left;verticalAlign=top;spacingLeft=4;spacingRight=4;overflow=hidden;rotatable=0;points=[[0,0.5],[1,0.5]];portConstraint=eastwest;whiteSpace=wrap;html=1;" vertex="1" parent="FrSUrsEjo2eyq7ZfQmNP-0">
          <mxGeometry y="26" width="230" height="94" as="geometry" />
        </mxCell>
        <mxCell id="FrSUrsEjo2eyq7ZfQmNP-2" value="" style="line;strokeWidth=1;fillColor=none;align=left;verticalAlign=middle;spacingTop=-1;spacingLeft=3;spacingRight=3;rotatable=0;labelPosition=right;points=[];portConstraint=eastwest;strokeColor=inherit;" vertex="1" parent="FrSUrsEjo2eyq7ZfQmNP-0">
          <mxGeometry y="120" width="230" height="8" as="geometry" />
        </mxCell>
        <mxCell id="FrSUrsEjo2eyq7ZfQmNP-3" value="+ Validate(): []error&lt;br&gt;*+ AddFlags(*pflag.FlagSet): void" style="text;strokeColor=none;fillColor=none;align=left;verticalAlign=top;spacingLeft=4;spacingRight=4;overflow=hidden;rotatable=0;points=[[0,0.5],[1,0.5]];portConstraint=eastwest;whiteSpace=wrap;html=1;" vertex="1" parent="FrSUrsEjo2eyq7ZfQmNP-0">
          <mxGeometry y="128" width="230" height="42" as="geometry" />
        </mxCell>
        <mxCell id="FrSUrsEjo2eyq7ZfQmNP-4" value="Analytics" style="swimlane;fontStyle=1;align=center;verticalAlign=top;childLayout=stackLayout;horizontal=1;startSize=26;horizontalStack=0;resizeParent=1;resizeParentMax=0;resizeLast=0;collapsible=1;marginBottom=0;whiteSpace=wrap;html=1;" vertex="1" parent="WIyWlLk6GJQsqaUBKTNV-1">
          <mxGeometry x="180" y="310" width="230" height="220" as="geometry" />
        </mxCell>
        <mxCell id="FrSUrsEjo2eyq7ZfQmNP-5" value="- store: storage.AnalyticsHandler&lt;br&gt;- poolSize: int&lt;br&gt;- recordsChan: chan *AnalyticsRecord&lt;br&gt;- workerBufferSize: uint64&lt;br&gt;- recordsBufferFlushInterval: uint64&lt;br&gt;- shouldStop: uint32&lt;br&gt;- poolWg: sync.WaitGroup" style="text;strokeColor=none;fillColor=none;align=left;verticalAlign=top;spacingLeft=4;spacingRight=4;overflow=hidden;rotatable=0;points=[[0,0.5],[1,0.5]];portConstraint=eastwest;whiteSpace=wrap;html=1;" vertex="1" parent="FrSUrsEjo2eyq7ZfQmNP-4">
          <mxGeometry y="26" width="230" height="114" as="geometry" />
        </mxCell>
        <mxCell id="FrSUrsEjo2eyq7ZfQmNP-6" value="" style="line;strokeWidth=1;fillColor=none;align=left;verticalAlign=middle;spacingTop=-1;spacingLeft=3;spacingRight=3;rotatable=0;labelPosition=right;points=[];portConstraint=eastwest;strokeColor=inherit;" vertex="1" parent="FrSUrsEjo2eyq7ZfQmNP-4">
          <mxGeometry y="140" width="230" height="8" as="geometry" />
        </mxCell>
        <mxCell id="FrSUrsEjo2eyq7ZfQmNP-7" value="+ Start(): void&lt;br&gt;+ Stop(): void&lt;br&gt;+ RecordHit(): void&lt;br&gt;- recordWorker(): void" style="text;strokeColor=none;fillColor=none;align=left;verticalAlign=top;spacingLeft=4;spacingRight=4;overflow=hidden;rotatable=0;points=[[0,0.5],[1,0.5]];portConstraint=eastwest;whiteSpace=wrap;html=1;" vertex="1" parent="FrSUrsEjo2eyq7ZfQmNP-4">
          <mxGeometry y="148" width="230" height="72" as="geometry" />
        </mxCell>
      </root>
    </mxGraphModel>
  </diagram>
</mxfile>
